HIERARCHY
ROOT reference
{
  OFFSET 0 0 0
  CHANNELS 6 Xposition Yposition Zposition Zrotation Xrotation Yrotation
  JOINT Hips
  {
    OFFSET -10.5182 85.0116 125.353
    CHANNELS 6 Xposition Yposition Zposition Zrotation Xrotation Yrotation
    JOINT Spine
    {
      OFFSET 0 7.59534 0
      CHANNELS 6 Xposition Yposition Zposition Zrotation Xrotation Yrotation
      JOINT Spine1
      {
        OFFSET 0 23.5015 0
        CHANNELS 6 Xposition Yposition Zposition Zrotation Xrotation Yrotation
        JOINT Neck
        {
          OFFSET 0 23.405 2.12773
          CHANNELS 6 Xposition Yposition Zposition Zrotation Xrotation Yrotation
          JOINT Head
          {
            OFFSET 0 12.9677 -1.85252
            CHANNELS 6 Xposition Yposition Zposition Zrotation Xrotation Yrotation
            End Site
            {
              OFFSET 0 23.1565 0
            }
          }
        }
        JOINT LeftShoulder
        {
          OFFSET 3.62206 22.4732 -0.132728
          CHANNELS 6 Xposition Yposition Zposition Zrotation Xrotation Yrotation
          JOINT LeftArm
          {
            OFFSET 8.17784 0 0
            CHANNELS 6 Xposition Yposition Zposition Zrotation Xrotation Yrotation
            JOINT LeftForeArm
            {
              OFFSET 30.104 0 0
              CHANNELS 6 Xposition Yposition Zposition Zrotation Xrotation Yrotation
              JOINT LeftHand
              {
                OFFSET 24.4664 0 0
                CHANNELS 6 Xposition Yposition Zposition Zrotation Xrotation Yrotation
                End Site
                {
                  OFFSET 13.8939 0 0
                }
              }
            }
          }
        }
        JOINT RightShoulder
        {
          OFFSET -3.6336 22.4732 -0.132728
          CHANNELS 6 Xposition Yposition Zposition Zrotation Xrotation Yrotation
          JOINT RightArm
          {
            OFFSET -8.17784 0 0
            CHANNELS 6 Xposition Yposition Zposition Zrotation Xrotation Yrotation
            JOINT RightForeArm
            {
              OFFSET -30.104 0 0
              CHANNELS 6 Xposition Yposition Zposition Zrotation Xrotation Yrotation
              JOINT RightHand
              {
                OFFSET -24.4664 0 0
                CHANNELS 6 Xposition Yposition Zposition Zrotation Xrotation Yrotation
                End Site
                {
                  OFFSET -13.8939 0 0
                }
              }
            }
          }
        }
      }
    }
    JOINT LeftUpLeg
    {
      OFFSET 9.26261 0 0
      CHANNELS 6 Xposition Yposition Zposition Zrotation Xrotation Yrotation
      JOINT LeftLeg
      {
        OFFSET 0 -35.4897 0
        CHANNELS 6 Xposition Yposition Zposition Zrotation Xrotation Yrotation
        JOINT LeftFoot
        {
          OFFSET 0 -38.2023 0
          CHANNELS 6 Xposition Yposition Zposition Zrotation Xrotation Yrotation
          JOINT LeftToeBase
          {
            OFFSET 0 -6.0207 13.8939
            CHANNELS 6 Xposition Yposition Zposition Zrotation Xrotation Yrotation
            End Site
            {
              OFFSET 0 0 3.70504
            }
          }
        }
      }
    }
    JOINT RightUpLeg
    {
      OFFSET -9.26261 0 0
      CHANNELS 6 Xposition Yposition Zposition Zrotation Xrotation Yrotation
      JOINT RightLeg
      {
        OFFSET 0 -35.4897 0
        CHANNELS 6 Xposition Yposition Zposition Zrotation Xrotation Yrotation
        JOINT RightFoot
        {
          OFFSET 0 -38.2023 0
          CHANNELS 6 Xposition Yposition Zposition Zrotation Xrotation Yrotation
          JOINT RightToeBase
          {
            OFFSET 0 -6.0207 13.8939
            CHANNELS 6 Xposition Yposition Zposition Zrotation Xrotation Yrotation
            End Site
            {
              OFFSET 0 0 3.70504
            }
          }
        }
      }
    }
  }
}
MOTION
Frames:	4
Frame Time:	0.004
0 0 0 0 0 -0 -23.7724 75.3014 -226.696 0.0782727 0.237482 -4.65844 0 7.59534 -2.84217e-014 1.21746 -8.13721 0.203577 0 23.5015 0 0.255985 0.494647 0.115948 0 23.405 2.12773 -4.62298 25.7548 -5.38924 0 12.9677 -1.85252 1.99302 4.73898 -5.83045 3.62206 22.4732 -0.132728 13.8744 1.82072 14.4024 8.17784 0 0 -18.4034 2.13256 -5.42295 30.104 2.84217e-014 0 1.63953 -0.0759849 -1.58761 24.4664 -2.84217e-014 0 -0.997213 -0.039919 -1.62945 -3.6336 22.4732 -0.132728 -10.3289 1.18375 19.8481 -8.17784 0 -2.84217e-014 15.0167 -1.27889 -2.04644 -30.104 -2.84217e-014 0 -2.12899 0.618182 2.04964 -24.4664 0 -2.84217e-014 0.368587 0.655356 -0.310229 9.26261 1.42109e-014 0 1.86508 10.3316 -1.56036 0 -35.4897 0 -0.633797 -6.60799 -2.08987 -7.10543e-015 -38.2023 0 -0.208138 -4.12207 17.796 -3.55271e-015 -6.0207 13.8939 -6.21202e-018 4.96962e-017 3.18055e-015 -9.26261 -1.42109e-014 0 -3.43893 1.89142 2.43798 7.10543e-015 -35.4897 2.84217e-014 -1.28887 5.59711 1.96156 0 -38.2023 0 2.17395 -7.07318 -2.56855 -7.10543e-015 -6.0207 13.8939 -6.21202e-017 1.98785e-016 -0 
0 0 0 0 0 -0 -23.7724 75.3014 -226.696 0.0782727 0.237482 -4.65844 0 7.59534 -2.84217e-014 1.21746 -8.13721 0.203577 0 23.5015 0 0.227871 0.483237 0.115948 7.10543e-015 23.405 2.12773 -4.5515 25.7802 -5.3904 1.42109e-014 12.9677 -1.85252 1.93141 4.69252 -5.83006 3.62206 22.4732 -0.132728 13.8992 1.84447 14.3931 8.17784 -2.84217e-014 0 -18.4063 2.10163 -5.42284 30.104 2.84217e-014 0 1.63923 -0.0868763 -1.58761 24.4664 2.84217e-014 0 -1.02501 -0.05039 -1.6249 -3.6336 22.4732 -0.132728 -10.2985 1.15593 19.8479 -8.17784 0 2.84217e-014 15.0093 -1.25906 -2.06604 -30.104 0 2.84217e-014 -2.11787 0.62752 2.05989 -24.4664 0 0 0.34675 0.66471 -0.321845 9.26261 1.42109e-014 0 1.86658 10.3145 -1.57127 0 -35.4897 0 -0.631656 -6.5837 -2.17389 0 -38.2023 0 -0.100932 -4.14651 17.8616 -3.55271e-015 -6.0207 13.8939 1.86361e-017 0 -3.18055e-015 -9.26261 -1.42109e-014 0 -3.43995 1.8767 2.48815 0 -35.4897 -2.84217e-014 -1.26867 5.61927 2.08495 -7.10543e-015 -38.2023 0 2.1468 -7.10511 -2.75769 0 -6.0207 13.8939 -4.53478e-016 0 3.97569e-016 
0 0 0 0 0 -0 -23.7724 75.3014 -226.696 0.0774171 0.226981 -4.65844 0 7.59534 -2.84217e-014 1.21746 -8.13721 0.203577 0 23.5015 0 0.246996 0.484278 0.115948 -7.10543e-015 23.405 2.12773 -4.55518 25.7845 -5.3906 0 12.9677 -1.85252 1.91608 4.68312 -5.82998 3.62206 22.4732 -0.132728 13.8922 1.84305 14.3983 8.17784 0 0 -18.4048 2.11783 -5.4229 30.104 2.84217e-014 0 1.63905 -0.093425 -1.58761 24.4664 2.84217e-014 0 -1.07613 -0.055728 -1.65271 -3.6336 22.4732 -0.132728 -10.3111 1.16459 19.8479 -8.17784 0 2.84217e-014 15.0079 -1.26164 -2.04658 -30.104 -2.84217e-014 -2.84217e-014 -2.12974 0.611382 2.04761 -24.4664 0 0 0.363452 0.648592 -0.301608 9.26261 2.84217e-014 0 1.86145 10.3381 -1.53918 0 -35.4897 2.84217e-014 -0.614014 -6.61997 -2.10044 0 -38.2023 0 -0.155084 -4.11534 17.7418 0 -6.0207 13.8939 -6.21202e-018 0 -0 -9.26261 0 0 -3.43983 1.89002 2.4668 -7.10543e-015 -35.4897 -2.84217e-014 -1.2828 5.60692 1.93208 0 -38.2023 0 2.22269 -7.0696 -2.57622 0 -6.0207 13.8939 -1.42876e-016 -1.98785e-016 3.97569e-016 
0 0 0 0 0 -0 -23.7724 75.3014 -226.696 0.0769064 0.220714 -4.65843 0 7.59534 -2.84217e-014 1.21746 -8.13721 0.203577 0 23.5015 0 0.237397 0.484443 0.115948 0 23.405 2.12773 -4.55227 25.7916 -5.39092 0 12.9677 -1.85252 1.92527 4.6761 -5.82992 3.62206 22.4732 -0.132728 13.9096 1.84521 14.3846 8.17784 0 0 -18.4138 2.0879 -5.42279 30.104 0 -2.84217e-014 1.63914 -0.0899114 -1.58761 24.4664 -2.84217e-014 0 -1.07625 -0.051553 -1.64921 -3.6336 22.4732 -0.132728 -10.3132 1.16725 19.848 -8.17784 0 -2.84217e-014 15.0003 -1.26385 -2.05381 -30.104 0 2.84217e-014 -2.13308 0.600115 2.04977 -24.4664 0 2.84217e-014 0.407679 0.637278 -0.282049 9.26261 0 0 1.8603 10.3355 -1.53316 7.10543e-015 -35.4897 2.84217e-014 -0.621767 -6.59289 -2.20515 0 -38.2023 2.84217e-014 -0.346099 -4.14691 17.9012 7.10543e-015 -6.0207 13.8939 1.2424e-017 -7.45443e-017 -3.18055e-015 -9.26261 -1.42109e-014 0 -3.44051 1.89123 2.48586 -7.10543e-015 -35.4897 0 -1.27321 5.61706 2.01517 7.10543e-015 -38.2023 0 2.13497 -7.08518 -2.68067 0 -6.0207 13.8939 -2.11209e-016 0 3.97569e-016 
